<svg style="display:none">
    <symbol id="MagnifyingGlass" viewBox="0 0 18 19" fill="none" xmlns="http://www.w3.org/2000/svg">
        <path
            d="M16.1479 15.6171L12.6273 12.0972C13.6477 10.8722 14.1566 9.30091 14.048 7.71026C13.9394 6.11961 13.2217 4.63206 12.0443 3.55706C10.8668 2.48207 9.32029 1.90239 7.72635 1.93861C6.13241 1.97484 4.6138 2.62418 3.48642 3.75156C2.35904 4.87893 1.7097 6.39755 1.67348 7.99149C1.63725 9.58543 2.21693 11.132 3.29193 12.3094C4.36692 13.4868 5.85447 14.2045 7.44512 14.3131C9.03577 14.4217 10.6071 13.9129 11.8321 12.8925L15.3519 16.413C15.4042 16.4653 15.4663 16.5067 15.5345 16.535C15.6028 16.5633 15.676 16.5779 15.7499 16.5779C15.8238 16.5779 15.897 16.5633 15.9653 16.535C16.0336 16.5067 16.0956 16.4653 16.1479 16.413C16.2001 16.3608 16.2416 16.2987 16.2699 16.2304C16.2982 16.1621 16.3127 16.089 16.3127 16.0151C16.3127 15.9411 16.2982 15.868 16.2699 15.7997C16.2416 15.7314 16.2001 15.6693 16.1479 15.6171ZM2.81242 8.14005C2.81242 7.13878 3.10933 6.16 3.6656 5.32748C4.22188 4.49495 5.01253 3.84608 5.93758 3.46291C6.86263 3.07974 7.88053 2.97949 8.86256 3.17483C9.84459 3.37017 10.7466 3.85232 11.4546 4.56032C12.1626 5.26833 12.6448 6.17038 12.8401 7.15241C13.0355 8.13444 12.9352 9.15234 12.5521 10.0774C12.1689 11.0024 11.52 11.7931 10.6875 12.3494C9.85497 12.9056 8.87618 13.2026 7.87492 13.2026C6.53271 13.2011 5.24591 12.6672 4.29683 11.7181C3.34775 10.7691 2.81391 9.48225 2.81242 8.14005Z"
            fill="#A352D9" />
    </symbol>
    <symbol id="Heart" viewBox="0 0 18 19" fill="none" xmlns="http://www.w3.org/2000/svg">
        <path
            d="M12.5156 2.51514C11.0637 2.51514 9.79242 3.13951 9 4.1949C8.20758 3.13951 6.93633 2.51514 5.48438 2.51514C4.3286 2.51644 3.22053 2.97615 2.40327 3.79341C1.58601 4.61067 1.1263 5.71873 1.125 6.87451C1.125 11.7964 8.42273 15.7803 8.73352 15.9448C8.81543 15.9889 8.90699 16.012 9 16.012C9.09301 16.012 9.18457 15.9889 9.26648 15.9448C9.57726 15.7803 16.875 11.7964 16.875 6.87451C16.8737 5.71873 16.414 4.61067 15.5967 3.79341C14.7795 2.97615 13.6714 2.51644 12.5156 2.51514ZM9 14.8058C7.71609 14.0576 2.25 10.6496 2.25 6.87451C2.25112 6.01704 2.59224 5.19502 3.19856 4.5887C3.80488 3.98238 4.62691 3.64125 5.48438 3.64014C6.85195 3.64014 8.00016 4.36857 8.47969 5.53857C8.52207 5.64174 8.59416 5.72998 8.6868 5.79208C8.77945 5.85419 8.88847 5.88734 9 5.88734C9.11153 5.88734 9.22055 5.85419 9.3132 5.79208C9.40584 5.72998 9.47793 5.64174 9.52031 5.53857C9.99984 4.36646 11.148 3.64014 12.5156 3.64014C13.3731 3.64125 14.1951 3.98238 14.8014 4.5887C15.4078 5.19502 15.7489 6.01704 15.75 6.87451C15.75 10.644 10.2825 14.0569 9 14.8058Z"
            fill="#A352D9" />
    </symbol>

    <symbol id="ShoppingCart" viewBox="0 0 18 19" fill="none" xmlns="http://www.w3.org/2000/svg">
        <path
            d="M15.1875 3.07764H2.8125C2.51413 3.07764 2.22798 3.19616 2.017 3.40714C1.80603 3.61812 1.6875 3.90427 1.6875 4.20264V14.3276C1.6875 14.626 1.80603 14.9122 2.017 15.1231C2.22798 15.3341 2.51413 15.4526 2.8125 15.4526H15.1875C15.4859 15.4526 15.772 15.3341 15.983 15.1231C16.194 14.9122 16.3125 14.626 16.3125 14.3276V4.20264C16.3125 3.90427 16.194 3.61812 15.983 3.40714C15.772 3.19616 15.4859 3.07764 15.1875 3.07764ZM15.1875 14.3276H2.8125V4.20264H15.1875V14.3276ZM12.375 6.45264C12.375 7.34774 12.0194 8.20619 11.3865 8.83912C10.7536 9.47206 9.89511 9.82764 9 9.82764C8.10489 9.82764 7.24645 9.47206 6.61351 8.83912C5.98058 8.20619 5.625 7.34774 5.625 6.45264C5.625 6.30345 5.68426 6.16038 5.78975 6.05489C5.89524 5.9494 6.03832 5.89014 6.1875 5.89014C6.33668 5.89014 6.47976 5.9494 6.58525 6.05489C6.69074 6.16038 6.75 6.30345 6.75 6.45264C6.75 7.04937 6.98705 7.62167 7.40901 8.04363C7.83097 8.46558 8.40326 8.70264 9 8.70264C9.59674 8.70264 10.169 8.46558 10.591 8.04363C11.0129 7.62167 11.25 7.04937 11.25 6.45264C11.25 6.30345 11.3093 6.16038 11.4148 6.05489C11.5202 5.9494 11.6633 5.89014 11.8125 5.89014C11.9617 5.89014 12.1048 5.9494 12.2102 6.05489C12.3157 6.16038 12.375 6.30345 12.375 6.45264Z"
            fill="#A352D9" />
    </symbol>

    <symbol id="User" viewBox="0 0 18 19" fill="none" xmlns="http://www.w3.org/2000/svg">
        <path
            d="M16.2368 15.1713C15.1659 13.32 13.5157 11.9925 11.5898 11.3632C12.5424 10.7961 13.2826 9.932 13.6965 8.90355C14.1105 7.8751 14.1754 6.73919 13.8814 5.67027C13.5873 4.60135 12.9504 3.65851 12.0686 2.98656C11.1868 2.3146 10.1089 1.95068 9.00022 1.95068C7.89158 1.95068 6.81359 2.3146 5.9318 2.98656C5.05001 3.65851 4.41317 4.60135 4.11909 5.67027C3.825 6.73919 3.88993 7.8751 4.3039 8.90355C4.71787 9.932 5.45799 10.7961 6.41061 11.3632C4.48475 11.9918 2.83452 13.3193 1.76366 15.1713C1.72439 15.2354 1.69834 15.3066 1.68705 15.3809C1.67576 15.4552 1.67946 15.5309 1.69793 15.6037C1.7164 15.6765 1.74927 15.7449 1.79459 15.8048C1.83991 15.8647 1.89677 15.9149 1.96182 15.9525C2.02686 15.9901 2.09877 16.0142 2.1733 16.0236C2.24784 16.0329 2.32349 16.0272 2.39578 16.0068C2.46808 15.9864 2.53556 15.9518 2.59425 15.9049C2.65294 15.858 2.70164 15.7999 2.73749 15.7338C4.06217 13.4445 6.40358 12.0776 9.00022 12.0776C11.5969 12.0776 13.9383 13.4445 15.263 15.7338C15.2988 15.7999 15.3475 15.858 15.4062 15.9049C15.4649 15.9518 15.5324 15.9864 15.6047 16.0068C15.677 16.0272 15.7526 16.0329 15.8271 16.0236C15.9017 16.0142 15.9736 15.9901 16.0386 15.9525C16.1037 15.9149 16.1605 15.8647 16.2059 15.8048C16.2512 15.7449 16.284 15.6765 16.3025 15.6037C16.321 15.5309 16.3247 15.4552 16.3134 15.3809C16.3021 15.3066 16.2761 15.2354 16.2368 15.1713ZM5.06272 7.0151C5.06272 6.23633 5.29365 5.47506 5.72631 4.82754C6.15897 4.18002 6.77392 3.67534 7.4934 3.37732C8.21289 3.0793 9.00459 3.00133 9.76839 3.15325C10.5322 3.30518 11.2338 3.68019 11.7845 4.23086C12.3351 4.78153 12.7101 5.48313 12.8621 6.24693C13.014 7.01073 12.936 7.80243 12.638 8.52191C12.34 9.2414 11.8353 9.85635 11.1878 10.289C10.5403 10.7217 9.77899 10.9526 9.00022 10.9526C7.95627 10.9515 6.9554 10.5363 6.21722 9.7981C5.47904 9.05991 5.06384 8.05904 5.06272 7.0151Z"
            fill="#A352D9" />
    </symbol>

    <symbol id="ChevronLeft" viewBox="0 0 20 20" fill="none" xmlns="http://www.w3.org/2000/svg">
        <path d="M12.5 15L7.5 10L12.5 5" stroke="#A352D9" stroke-width="1.5" stroke-linecap="round"
            stroke-linejoin="round" />
    </symbol>

    <symbol id="ChevronRight" viewBox="0 0 20 20" fill="none" xmlns="http://www.w3.org/2000/svg">
        <path d="M7.5 15L12.5 10L7.5 5" stroke="#A352D9" stroke-width="1.5" stroke-linecap="round"
            stroke-linejoin="round" />
    </symbol>

    <symbol id="freeShipping" viewBox="0 0 16 16" fill="none" xmlns="http://www.w3.org/2000/svg">
        <g clip-path="url(#clip0_475_510)">
            <path
                d="M1.71436 5.71436H14.2858V13.7144C14.2858 14.0174 14.1653 14.3082 13.951 14.5225C13.7368 14.7368 13.446 14.8572 13.1429 14.8572H2.85721C2.5541 14.8572 2.26342 14.7368 2.04909 14.5225C1.83477 14.3082 1.71436 14.0174 1.71436 13.7144V5.71436Z"
                stroke="#A352D9" stroke-width="1.71429" stroke-linecap="round" stroke-linejoin="round" />
            <path
                d="M15.4287 4.57139V2.28568C15.4287 1.6545 14.917 1.14282 14.2858 1.14282H1.71439C1.08321 1.14282 0.571533 1.6545 0.571533 2.28568V4.57139C0.571533 5.20257 1.08321 5.71425 1.71439 5.71425H14.2858C14.917 5.71425 15.4287 5.20257 15.4287 4.57139Z"
                stroke="#A352D9" stroke-width="1.71429" stroke-linecap="round" stroke-linejoin="round" />
            <path d="M6.28589 9.14282H9.71446" stroke="#A352D9" stroke-width="1.71429" stroke-linecap="round"
                stroke-linejoin="round" />
        </g>
        <defs>
            <clipPath id="clip0_475_510">
                <rect width="16" height="16" fill="white" />
            </clipPath>
        </defs>
    </symbol>

    <symbol id="truck" viewBox="0 0 16 16" fill="none" xmlns="http://www.w3.org/2000/svg">
        <g clip-path="url(#clip0_475_503)">
            <path
                d="M9.71436 6.28564H13.1429C13.7491 6.28564 14.3305 6.52646 14.7592 6.95512C15.1878 7.38377 15.4286 7.96515 15.4286 8.57136V13.1428H13.7144"
                stroke="#A352D9" stroke-width="1.71429" stroke-linecap="round" stroke-linejoin="round" />
            <path
                d="M1.71439 13.1429H0.571533V5.14286C0.571533 4.83975 0.691941 4.54906 0.906268 4.33473C1.1206 4.12041 1.41128 4 1.71439 4H8.57153C8.87464 4 9.16533 4.12041 9.37966 4.33473C9.59398 4.54906 9.71439 4.83975 9.71439 5.14286V13.1429"
                stroke="#A352D9" stroke-width="1.71429" stroke-linecap="round" stroke-linejoin="round" />
            <path d="M9.14303 13.1428H6.28589" stroke="#A352D9" stroke-width="1.71429" stroke-linecap="round"
                stroke-linejoin="round" />
            <path
                d="M11.7144 15.4285C10.6098 15.4285 9.71436 14.533 9.71436 13.4285C9.71436 12.3239 10.6098 11.4285 11.7144 11.4285C12.8189 11.4285 13.7144 12.3239 13.7144 13.4285C13.7144 14.533 12.8189 15.4285 11.7144 15.4285Z"
                stroke="#A352D9" stroke-width="1.71429" stroke-linecap="round" stroke-linejoin="round" />
            <path
                d="M4 15.4285C2.89543 15.4285 2 14.533 2 13.4285C2 12.3239 2.89543 11.4285 4 11.4285C5.10457 11.4285 6 12.3239 6 13.4285C6 14.533 5.10457 15.4285 4 15.4285Z"
                stroke="#A352D9" stroke-width="1.71429" stroke-linecap="round" stroke-linejoin="round" />
        </g>
        <defs>
            <clipPath id="clip0_475_503">
                <rect width="16" height="16" fill="white" />
            </clipPath>
        </defs>
    </symbol>

    <symbol id="creditCard" viewBox="0 0 16 16" fill="none" xmlns="http://www.w3.org/2000/svg">
        <g clip-path="url(#clip0_475_515)">
            <path
                d="M14.2858 2.57153H1.71439C1.08321 2.57153 0.571533 3.08321 0.571533 3.71439V12.2858C0.571533 12.917 1.08321 13.4287 1.71439 13.4287H14.2858C14.917 13.4287 15.4287 12.917 15.4287 12.2858V3.71439C15.4287 3.08321 14.917 2.57153 14.2858 2.57153Z"
                stroke="#A352D9" stroke-width="1.71429" stroke-linecap="round" stroke-linejoin="round" />
            <path d="M0.571533 6.57153H15.4287" stroke="#A352D9" stroke-width="1.71429" stroke-linecap="round"
                stroke-linejoin="round" />
            <path d="M10.8572 10.5715H12.5715" stroke="#A352D9" stroke-width="1.71429" stroke-linecap="round"
                stroke-linejoin="round" />
        </g>
        <defs>
            <clipPath id="clip0_475_515">
                <rect width="16" height="16" fill="white" />
            </clipPath>
        </defs>
    </symbol>

</svg>